# xmcd
#
# Track frame offsets:
#	182
#	10045
#	25710
#	41470
#	53107
#	67307
#	78337
#	96572
#	110495
#	118520
#	131145
#	141982
#	160420
#	175050
#	187745
#	201712
#	215395
#	226920
#	237220
#	250432
#
# Disc length: 3488 seconds
#
# Revision: 0
# Processed by: cddbd v1.4PL0 Copyright (c) Steve Scherf et al.
# Submitted via: audiograbber 1.82.02
#
DISCID=1e0d9e14
DTITLE=Zillertaler Schürzenjäger - 20 Top Hits
DYEAR=1900
DGENRE=
TTITLE0=Zeit für Fröhlichkeit
TTITLE1=Zillertaler Hochzeitsmarsch (Tramplan)
TTITLE2=Grüne Tannen
TTITLE3=Die Berge sind mein Zuhaus
TTITLE4=Ich habe dir zu danken
TTITLE5=Der Holzknecht
TTITLE6=Ich lieb' die Berge meiner Heimat
TTITLE7=La la la
TTITLE8=Granatenpolka
TTITLE9=Schifahr'n ist schön
TTITLE10=I' komm' heut' nacht auf a Bussl zu dir
TTITLE11=Ischia isola bella
TTITLE12=Auf und nieder
TTITLE13=Wir sind Musikanten
TTITLE14=Lieben heisst von Herzen geben
TTITLE15=Logo logo
TTITLE16=Der alte Vater
TTITLE17=Marsch der freiwilligen Feuerwehr
TTITLE18=1 2 3 4oder 5 Runden Bier
TTITLE19=Verliebt in die Heimat
EXTD=
EXTT0=
EXTT1=
EXTT2=
EXTT3=
EXTT4=
EXTT5=
EXTT6=
EXTT7=
EXTT8=
EXTT9=
EXTT10=
EXTT11=
EXTT12=
EXTT13=
EXTT14=
EXTT15=
EXTT16=
EXTT17=
EXTT18=
EXTT19=
PLAYORDER=
